<?xml version="1.0" standalone="no"?>
<!DOCTYPE svg PUBLIC "-//W3C//DTD SVG 20010904//EN"
 "http://www.w3.org/TR/2001/REC-SVG-20010904/DTD/svg10.dtd">
<svg version="1.0" xmlns="http://www.w3.org/2000/svg"
 width="1592.000000pt" height="1592.000000pt" viewBox="0 0 1592.000000 1592.000000"
 preserveAspectRatio="xMidYMid meet">

<g transform="translate(0.000000,1592.000000) scale(0.100000,-0.100000)"
fill="#000000" stroke="none">
<path d="M7050 14494 c-14 -2 -52 -9 -85 -15 -76 -14 -165 -44 -235 -79 -30
-16 -77 -31 -103 -35 -223 -30 -699 -197 -888 -311 -284 -172 -510 -396 -628
-623 -37 -71 -64 -104 -176 -215 -216 -214 -324 -405 -371 -655 -21 -113 -21
-308 1 -434 l17 -99 -29 -86 c-26 -80 -28 -99 -28 -232 0 -132 3 -152 27 -222
15 -42 44 -110 64 -151 41 -85 142 -220 167 -225 15 -3 17 6 17 65 l1 68 24
-41 c22 -35 26 -55 29 -150 4 -123 27 -203 97 -330 21 -39 39 -76 39 -81 0 -6
-24 -13 -54 -16 -135 -14 -226 -110 -261 -273 -19 -91 -19 -300 0 -403 57
-298 211 -652 358 -820 31 -36 87 -104 125 -151 175 -220 214 -245 390 -246
l113 0 58 -121 c56 -115 122 -221 190 -308 85 -107 283 -290 389 -360 l42 -28
-72 -42 c-40 -23 -108 -67 -150 -97 -75 -55 -139 -82 -253 -107 -27 -7 -91
-32 -142 -57 -122 -60 -202 -134 -251 -233 -37 -73 -38 -74 -92 -88 -138 -34
-304 -139 -390 -246 -118 -146 -162 -283 -215 -672 -20 -148 -99 -842 -151
-1328 l-6 -57 -96 -30 c-140 -43 -704 -200 -719 -200 -7 0 -13 -3 -13 -7 0 -5
25 -91 55 -192 30 -102 53 -187 50 -189 -2 -2 -148 50 -324 117 l-321 121
-302 -211 c-167 -116 -305 -213 -307 -215 -5 -4 4 -48 131 -661 l101 -492 67
-30 c89 -41 110 -41 110 2 0 17 -7 67 -15 110 -17 90 -20 167 -5 167 14 0 57
-78 99 -184 41 -103 47 -113 57 -103 8 7 -9 100 -114 642 -44 226 -83 428 -87
450 l-6 40 188 107 c103 59 195 110 203 113 13 5 25 -36 69 -242 29 -136 68
-318 86 -403 19 -85 68 -314 110 -509 41 -195 77 -356 79 -358 4 -4 533 288
632 348 30 18 31 21 23 57 -122 506 -308 1306 -305 1309 2 3 91 29 198 59 106
30 229 66 272 80 43 13 80 23 82 22 1 -2 41 -176 89 -388 91 -407 177 -784
331 -1455 385 -1669 376 -1627 362 -1640 -7 -7 -85 -64 -173 -126 -88 -62
-179 -126 -202 -142 -24 -17 -45 -28 -48 -25 -3 2 -22 62 -43 132 -20 70 -41
126 -47 124 -6 -1 -10 -38 -10 -80 0 -95 -12 -111 -49 -68 -14 17 -26 36 -26
42 0 6 -12 7 -31 3 -18 -4 -44 -8 -60 -9 -15 -1 -37 -10 -47 -19 -11 -10 -32
-19 -48 -20 -39 -3 -42 21 -11 91 51 115 50 116 -72 97 -122 -20 -205 -22
-231 -5 -28 17 14 42 142 85 107 35 123 43 126 63 2 16 14 27 33 34 34 12 35
18 13 75 -9 23 -14 49 -11 58 10 25 59 18 100 -16 21 -17 44 -28 52 -25 8 3
17 -3 21 -16 6 -20 7 -21 19 -4 16 21 12 34 -144 576 -60 206 -117 403 -126
438 -10 34 -22 65 -27 68 -7 5 -617 -218 -637 -232 -2 -2 22 -106 53 -231 50
-205 205 -868 257 -1098 11 -49 23 -98 25 -107 4 -13 -52 -49 -252 -162 -141
-80 -260 -146 -264 -146 -7 0 -14 34 -170 830 -225 1149 -229 1169 -280 1185
-30 10 -37 0 -55 -76 -43 -189 -67 -180 -75 29 -5 140 -6 147 -26 150 -12 2
-43 -10 -70 -26 -40 -23 -48 -33 -46 -53 2 -13 41 -211 87 -439 140 -692 395
-2020 395 -2054 0 -10 5 -16 13 -13 6 3 297 136 645 296 348 160 637 289 641
287 4 -3 31 -69 61 -148 29 -79 55 -144 56 -146 1 -2 82 44 180 101 176 102
394 224 729 407 282 154 374 204 510 275 188 98 333 175 385 203 25 13 183 96
352 183 l306 159 884 -91 c485 -50 885 -93 887 -95 2 -2 -1 -34 -7 -71 -6 -37
-9 -69 -7 -71 2 -2 239 -44 528 -92 l523 -88 415 -232 c228 -128 426 -241 441
-252 82 -58 301 -143 442 -172 249 -52 432 -42 670 38 439 147 817 511 1170
1125 244 424 410 879 487 1331 27 160 37 495 20 635 -45 354 -189 657 -435
913 -98 102 -176 159 -288 211 -123 57 -192 72 -361 78 -131 5 -147 7 -142 22
8 20 196 556 221 631 21 61 26 237 11 365 l-9 70 41 57 c50 68 71 116 71 158
0 40 -31 118 -69 175 -17 25 -31 53 -31 61 0 9 23 99 51 200 l51 184 -21 33
c-11 18 -31 43 -45 56 l-26 24 74 77 c90 94 136 173 211 358 70 172 63 165
357 363 251 169 288 207 288 295 0 98 -104 175 -197 146 -19 -6 -126 -60 -238
-121 -112 -61 -206 -111 -210 -111 -4 0 29 41 72 91 154 178 314 384 340 437
23 48 25 57 14 93 -23 77 -100 139 -171 139 -63 0 -95 -27 -315 -259 -120
-127 -220 -229 -222 -227 -2 2 26 86 63 187 182 507 195 557 159 633 -27 56
-84 89 -160 94 -61 4 -64 3 -105 -34 -49 -44 -85 -115 -156 -306 -25 -68 -63
-172 -86 -233 -22 -60 -55 -139 -73 -175 l-33 -65 -6 55 c-3 30 -10 159 -16
285 -16 349 -40 464 -108 529 -81 76 -253 23 -283 -87 -8 -30 -9 -83 -3 -182
13 -201 10 -524 -5 -640 -13 -99 -54 -262 -71 -279 -15 -15 -98 53 -145 119
-63 87 -129 145 -220 189 -180 89 -321 62 -354 -68 -16 -66 2 -101 85 -168 88
-71 173 -160 207 -219 16 -27 36 -88 48 -145 34 -158 94 -289 199 -428 l59
-80 -37 -13 c-20 -7 -38 -13 -39 -13 -4 0 -51 -163 -79 -272 l-28 -108 -61
-29 c-107 -50 -137 -112 -111 -232 8 -36 7 -37 -29 -49 -52 -17 -101 -64 -120
-114 -9 -24 -20 -85 -23 -135 l-7 -92 -180 228 c-394 499 -563 696 -677 787
-128 102 -156 114 -550 217 -32 8 -42 18 -70 72 -48 90 -173 211 -275 265 -45
23 -107 51 -138 62 -30 10 -68 28 -83 38 -15 11 -60 36 -100 56 l-72 36 92 77
c137 112 382 363 470 480 193 257 303 508 344 787 l17 114 50 6 c65 9 146 40
195 76 57 41 93 99 147 235 26 66 60 143 75 170 40 71 74 173 103 305 34 153
47 278 47 457 0 238 -32 398 -111 556 -50 98 -96 149 -167 184 -65 32 -159 36
-229 10 -24 -9 -43 -13 -43 -8 0 13 58 213 80 276 52 150 62 288 35 495 -9 63
-20 198 -25 300 -11 237 -30 305 -118 416 -28 35 -41 64 -46 99 -12 78 -45
174 -88 257 -73 142 -206 260 -380 338 -73 33 -78 37 -78 66 0 49 -44 212 -77
285 -79 172 -222 319 -401 408 -35 18 -112 48 -170 68 -92 31 -123 37 -223 41
-98 4 -117 2 -122 -11 -4 -11 18 -27 86 -61 51 -26 108 -60 127 -77 l35 -30
-60 29 c-197 97 -365 131 -700 142 -260 9 -313 16 -520 69 -95 25 -147 32
-250 36 -71 2 -141 2 -155 -1z m2093 -1640 c51 -26 96 -74 122 -132 14 -30 40
-75 58 -101 99 -136 162 -296 257 -646 44 -165 71 -228 131 -307 77 -102 97
-158 119 -328 11 -85 20 -156 20 -157 0 -2 -15 -3 -32 -3 -28 0 -36 6 -53 37
-42 77 -136 123 -254 123 -47 0 -48 0 -43 30 4 26 -2 37 -37 70 -85 81 -218
182 -281 213 l-65 32 -180 -1 c-153 0 -192 -3 -258 -22 -111 -31 -227 -79
-337 -140 -97 -54 -265 -174 -283 -203 -15 -24 0 -66 29 -86 24 -15 28 -15 77
6 181 79 388 157 487 183 100 27 133 31 250 32 122 1 147 -2 260 -32 69 -18
158 -43 198 -55 l73 -24 -128 -6 c-312 -15 -982 -126 -1196 -197 -175 -59
-273 -130 -337 -243 -37 -67 -77 -102 -128 -117 -81 -22 -131 -6 -218 71 -131
117 -238 145 -514 136 -257 -9 -694 -63 -995 -121 -71 -14 -130 -24 -132 -22
-6 6 204 135 288 177 44 22 124 52 177 66 86 23 117 26 267 26 98 0 225 -7
300 -16 72 -9 153 -20 181 -23 45 -6 54 -4 73 15 33 33 25 80 -16 104 -53 31
-210 83 -338 113 -107 25 -139 28 -290 28 -187 -1 -242 -11 -406 -75 -102 -41
-151 -87 -258 -244 -72 -105 -74 -107 -87 -84 -23 45 -35 141 -24 199 29 151
131 255 436 442 136 84 180 104 561 257 445 178 700 311 921 480 84 64 188
168 216 216 17 29 19 30 88 27 39 -2 122 1 184 7 227 22 406 88 538 197 l67
55 50 -10 c107 -23 226 -7 334 44 60 28 86 30 128 9z m1202 -1648 c43 -33 106
-158 136 -272 27 -99 38 -425 20 -582 -19 -159 -64 -321 -125 -451 -30 -64
-69 -152 -85 -195 -17 -44 -42 -96 -55 -116 -26 -40 -86 -74 -150 -86 l-38 -7
7 124 c9 163 7 159 60 159 38 0 50 6 81 37 40 39 86 131 108 216 8 28 26 86
41 127 64 186 81 392 50 602 -17 114 -42 179 -86 224 -29 30 -29 30 -9 49 28
25 25 43 -7 51 -66 17 -150 -77 -208 -232 -32 -86 -33 -87 -40 -54 -3 19 -5
73 -3 120 l3 84 33 7 c60 12 89 86 57 145 -9 18 -14 37 -11 43 12 18 99 41
143 37 27 -2 56 -14 78 -30z m-936 -86 c103 -13 135 -29 161 -80 40 -79 52
-155 57 -386 7 -312 -19 -480 -88 -559 -80 -91 -350 -156 -782 -186 -291 -21
-437 7 -518 100 -109 123 -249 549 -249 754 0 80 0 80 38 116 89 84 437 169
907 221 277 31 359 34 474 20z m-4000 -98 c24 -30 78 -80 120 -113 42 -32 87
-67 100 -77 l24 -18 -79 -28 c-43 -16 -97 -41 -119 -56 -45 -31 -95 -112 -95
-154 0 -21 -5 -26 -24 -26 -23 0 -25 5 -31 66 -10 92 1 410 16 463 l12 45 16
-24 c9 -13 36 -48 60 -78z m4493 -225 c45 -296 51 -375 45 -617 -4 -197 -8
-237 -30 -326 -56 -219 -156 -440 -239 -528 -27 -28 -46 -45 -43 -38 4 8 4 38
0 69 l-7 56 -51 -103 c-45 -91 -125 -200 -147 -200 -4 0 -11 25 -15 56 -4 31
-9 53 -12 50 -3 -3 -20 -40 -37 -83 -38 -92 -83 -163 -103 -163 -8 0 -22 18
-30 40 l-16 39 -19 -39 -20 -40 -29 58 c-84 168 -218 244 -434 244 -96 0 -131
-5 -270 -40 -149 -38 -375 -91 -454 -107 l-34 -7 54 49 c30 26 91 70 136 97
46 26 86 52 89 57 3 5 19 9 35 9 71 0 139 56 159 130 17 64 -4 124 -65 187
-46 47 -85 68 -85 44 0 -4 14 -26 31 -47 59 -74 74 -145 44 -205 -22 -42 -52
-50 -137 -39 -67 8 -78 7 -133 -17 -40 -17 -79 -46 -116 -83 -101 -103 -203
-118 -319 -46 -42 26 -80 40 -126 48 -63 9 -70 8 -145 -21 -89 -35 -109 -33
-152 19 -32 37 -36 100 -11 165 22 57 28 85 17 85 -16 0 -51 -43 -72 -90 -23
-50 -27 -113 -10 -157 27 -72 114 -123 181 -105 25 6 60 0 153 -26 66 -18 131
-40 143 -49 13 -8 40 -20 60 -27 36 -13 34 -13 -58 -20 -52 -3 -208 -11 -346
-16 -187 -8 -270 -15 -325 -29 -220 -56 -345 -181 -381 -381 l-14 -74 -42 42
-42 42 0 -34 c0 -50 -20 -61 -60 -33 -33 22 -127 126 -148 163 -17 31 -25 9
-14 -40 8 -40 7 -46 -7 -46 -32 0 -106 56 -183 138 -42 45 -79 82 -81 82 -5 0
4 -48 17 -87 11 -34 -9 -29 -69 16 -67 51 -162 170 -243 303 -113 187 -225
521 -271 808 -38 240 -60 365 -67 388 -5 16 -2 22 10 22 9 0 18 -6 20 -12 2
-7 18 -74 36 -148 38 -159 125 -433 176 -554 62 -147 153 -216 333 -252 112
-22 383 -15 560 15 375 64 626 156 761 279 101 91 114 132 174 548 19 127 39
241 46 253 6 13 37 35 68 49 68 32 157 35 213 8 39 -18 41 -22 131 -225 118
-268 176 -376 240 -446 34 -36 67 -64 74 -61 7 3 35 -4 62 -14 101 -38 218
-54 407 -54 464 0 873 100 1032 252 113 109 128 185 128 659 0 348 -1 337 40
342 6 0 22 -81 37 -182z m-2868 -17 c39 -6 84 -18 100 -28 73 -41 100 -187 93
-482 -7 -275 -35 -401 -105 -482 -102 -115 -624 -242 -1002 -243 -152 0 -168
2 -207 22 -100 54 -191 235 -268 537 -56 220 -64 366 -22 430 50 75 382 162
847 221 262 33 449 41 564 25z m-2016 -286 c30 -6 31 -8 17 -27 -27 -38 -17
-86 28 -134 11 -13 28 -23 37 -23 11 0 23 -16 33 -41 l16 -41 -45 42 c-68 63
-151 89 -182 58 -20 -20 -14 -35 18 -48 l30 -12 -20 -25 c-38 -48 -46 -124
-27 -252 9 -64 26 -152 37 -196 26 -100 111 -277 181 -375 30 -42 60 -87 68
-102 28 -54 104 -140 149 -169 45 -29 88 -35 141 -18 8 2 18 -9 26 -31 7 -19
29 -79 49 -134 l36 -98 -83 3 c-102 5 -127 21 -219 142 -35 45 -92 114 -127
152 -119 130 -230 333 -302 554 -78 239 -101 402 -80 552 20 139 58 199 136
218 53 12 48 12 83 5z m7182 -1384 c42 -23 64 -164 80 -520 17 -360 27 -411
85 -426 79 -20 152 106 300 516 72 200 125 319 150 340 24 20 86 1 104 -31 13
-23 12 -34 -2 -95 -10 -38 -36 -118 -58 -179 -112 -303 -210 -584 -215 -616
-11 -65 32 -106 88 -87 16 6 142 130 295 291 147 155 273 286 281 291 23 13
80 -19 88 -49 4 -18 -1 -36 -19 -63 -41 -63 -182 -237 -344 -425 -181 -209
-195 -235 -153 -277 41 -41 73 -30 357 126 146 80 279 152 296 159 36 15 73 3
82 -26 13 -41 -24 -76 -222 -209 -221 -149 -314 -219 -341 -258 -10 -15 -38
-76 -62 -137 -52 -131 -92 -214 -133 -275 -38 -56 -136 -160 -151 -160 -6 0
-44 18 -86 39 -89 47 -283 113 -395 135 -44 9 -132 20 -195 26 l-115 10 -33
38 c-61 69 -168 237 -199 312 -17 41 -40 119 -52 173 -12 56 -33 122 -51 155
-38 72 -149 194 -229 252 -159 116 23 158 196 46 61 -39 88 -67 142 -143 54
-74 105 -114 217 -170 198 -98 318 -236 330 -382 8 -91 12 -101 38 -101 42 0
50 22 38 107 -21 148 -114 284 -261 379 -44 28 -59 43 -54 54 26 58 64 190 78
270 22 126 31 476 16 673 -13 186 -8 218 39 234 44 15 47 15 70 3z m-3403
-135 c121 -36 176 -177 123 -319 -68 -181 -248 -347 -435 -402 -86 -24 -207
-23 -266 3 -48 21 -135 102 -121 113 4 4 31 17 61 29 113 48 222 125 384 276
136 126 150 135 210 135 37 0 53 5 72 25 14 13 25 32 25 41 0 27 -74 94 -104
94 -29 0 -66 -31 -66 -55 0 -31 -88 -57 -235 -71 -164 -15 -284 -17 -245 -4
44 15 454 138 475 143 39 9 72 7 122 -8z m-1417 -271 c-145 -40 -173 -44 -234
-39 -56 4 -73 10 -92 30 -33 36 -70 32 -110 -11 -43 -45 -46 -86 -8 -111 23
-14 33 -15 82 -5 70 14 87 10 182 -46 179 -107 371 -181 508 -197 38 -4 62
-12 62 -19 0 -23 -58 -103 -94 -131 -92 -70 -288 -88 -433 -40 -151 51 -309
169 -367 275 -52 95 -45 206 16 269 66 68 82 71 383 70 l270 0 -165 -45z
m-128 -1232 c189 -129 447 -189 711 -164 226 21 442 72 586 138 l77 35 177
-55 c97 -31 178 -56 181 -56 9 0 26 -74 26 -115 0 -88 -88 -203 -196 -258
-221 -112 -697 -131 -1059 -43 -271 66 -493 177 -644 320 -62 60 -148 173
-138 183 14 13 176 52 204 48 18 -2 52 -17 75 -33z m1223 -1286 c31 -13 35
-19 35 -54 0 -25 -10 -54 -31 -86 -28 -45 -30 -55 -28 -130 l2 -81 -43 -8
c-39 -8 -45 -6 -75 23 -18 17 -42 54 -55 83 -12 29 -27 61 -33 72 -68 124 -72
146 -24 175 26 16 50 20 125 20 58 0 105 -5 127 -14z m264 -236 c110 -30 106
-25 81 -109 -16 -52 -25 -70 -33 -62 -20 20 -39 12 -109 -46 l-69 -56 78 -41
78 -41 0 -82 0 -82 -35 32 c-113 103 -140 133 -140 155 0 17 -4 22 -15 19 -27
-11 -165 -130 -165 -143 0 -19 25 -29 100 -43 36 -7 80 -19 99 -28 l34 -16
-24 -13 c-18 -10 -56 -12 -151 -9 l-128 5 0 -46 c0 -40 12 -80 29 -94 3 -3 14
-21 25 -40 10 -19 43 -78 72 -131 30 -52 56 -111 60 -130 5 -33 4 -33 -70 44
-66 69 -75 75 -79 55 -3 -18 -5 -16 -6 8 -1 29 -25 74 -34 64 -2 -3 -19 -421
-37 -930 -18 -509 -36 -1019 -41 -1135 -4 -115 -8 -292 -8 -392 l-1 -181 28
-6 c15 -3 108 -19 207 -36 379 -62 490 -81 501 -85 10 -3 -44 -487 -57 -499
-3 -3 -138 7 -300 24 -162 16 -413 41 -559 55 -146 14 -307 31 -357 37 l-93
11 0 1719 c0 945 3 1718 8 1718 36 0 409 54 416 60 10 10 10 9 -202 131 -168
97 -232 142 -220 154 10 11 115 -25 290 -99 87 -36 169 -66 182 -66 29 0 42
15 50 60 4 19 14 59 23 88 13 43 20 52 38 52 26 0 35 -30 35 -120 0 -73 6 -90
34 -90 12 0 85 39 162 86 76 47 146 89 154 92 8 3 37 19 63 35 l48 29 -68 47
c-72 49 -83 71 -43 82 43 12 71 10 149 -11z m-1984 -412 c43 -199 96 -501 89
-507 -5 -5 -88 -35 -184 -66 -185 -61 -870 -302 -875 -307 -1 -2 20 -164 48
-360 39 -282 53 -358 64 -358 8 0 48 12 89 26 76 27 90 46 40 52 -21 3 -36 17
-67 65 -48 76 -65 125 -51 139 19 19 65 -9 141 -86 63 -63 70 -74 57 -85 -19
-16 -12 -31 15 -31 11 0 98 27 194 59 l174 60 5 -27 c3 -15 12 -70 21 -122 31
-192 34 -201 56 -190 10 6 19 17 19 24 0 7 34 34 76 60 68 42 77 45 95 32 12
-8 27 -23 34 -34 13 -17 10 -22 -23 -54 -20 -19 -63 -56 -94 -82 -32 -27 -58
-52 -58 -56 0 -4 17 -10 39 -14 51 -8 67 -27 41 -51 -18 -16 -21 -16 -55 5
-27 17 -35 28 -35 50 0 41 -15 45 -40 10 -24 -33 -20 -50 12 -50 20 0 21 -1 3
-20 -24 -27 -17 -34 121 -120 123 -77 174 -116 174 -132 0 -16 -49 -3 -175 47
-98 38 -120 44 -160 38 -25 -3 -48 -10 -52 -16 -3 -5 -6 -40 -7 -78 -1 -64 0
-69 27 -84 32 -19 35 -60 5 -79 -21 -13 -60 21 -89 76 -24 48 -24 49 7 38 29
-11 30 -14 -29 73 -48 73 -63 79 -94 41 -25 -32 -29 -50 -12 -56 10 -3 -89
-198 -134 -262 -20 -28 -21 -28 -28 -8 -4 11 -11 48 -15 82 -6 53 -3 75 22
151 22 67 33 89 47 89 24 0 33 27 20 61 -7 17 -7 31 -2 35 14 8 11 47 -3 42
-7 -3 -50 -17 -95 -32 -46 -15 -83 -31 -83 -36 0 -4 6 -41 14 -81 8 -41 26
-141 40 -224 120 -707 155 -895 167 -895 12 0 657 130 807 163 l112 24 0 -232
0 -233 -22 -4 c-13 -3 -320 -89 -682 -192 -362 -103 -662 -183 -666 -179 -4 4
-40 199 -80 433 -82 487 -219 1285 -290 1695 -85 491 -224 1344 -219 1348 5 6
1510 445 1526 446 7 1 15 -9 18 -21z m1962 -293 l65 -60 13 -125 c8 -68 13
-125 11 -127 -1 -1 -50 70 -109 160 -94 142 -107 167 -107 205 l0 43 31 -18
c17 -10 61 -45 96 -78z m1545 -136 c-2 -19 -14 -140 -27 -269 -13 -129 -27
-266 -30 -305 -4 -38 -15 -155 -26 -260 -73 -715 -109 -1075 -109 -1107 0 -69
27 -42 50 49 12 49 70 106 103 101 34 -5 32 -48 -7 -145 -20 -47 -33 -89 -31
-92 3 -3 83 15 178 39 174 43 227 47 227 15 0 -23 -64 -59 -225 -126 -82 -34
-154 -65 -159 -70 -5 -4 9 -38 33 -78 78 -132 37 -173 -81 -79 -21 16 -45 28
-52 25 -8 -3 -18 -23 -24 -44 l-10 -38 -2 60 -2 60 -23 -92 c-27 -108 -83
-629 -69 -643 12 -12 283 -138 549 -256 185 -81 210 -95 207 -113 -9 -57 -81
-383 -86 -388 -3 -4 -106 21 -228 55 -197 55 -814 209 -970 243 -42 9 -58 17
-58 28 0 9 20 156 45 326 88 613 146 1025 185 1305 22 157 78 557 125 890 46
333 96 688 110 790 14 102 28 192 31 201 4 14 25 12 192 -16 l187 -31 -3 -35z
m-1531 -272 c104 -125 100 -115 113 -257 l6 -55 -23 29 c-77 101 -99 127 -102
124 -5 -4 44 -176 70 -248 8 -24 27 -64 42 -89 19 -32 27 -64 31 -113 3 -43 1
-68 -5 -68 -19 0 -85 82 -109 134 -13 28 -40 110 -59 181 -20 72 -50 171 -66
220 -24 75 -29 107 -29 189 0 118 -8 121 131 -47z m1914 -458 c81 -99 143
-184 139 -189 -12 -10 -341 -150 -354 -150 -14 0 -13 15 20 246 33 236 40 274
44 274 2 0 70 -81 151 -181z m2125 137 c216 -45 338 -104 456 -221 63 -62 89
-97 117 -155 55 -117 97 -317 113 -542 4 -54 9 -98 12 -98 3 0 37 22 76 48
106 73 163 104 183 100 14 -4 0 -23 -62 -84 -44 -44 -109 -106 -144 -137 l-63
-56 -14 -103 c-7 -57 -20 -134 -28 -173 -8 -38 -14 -71 -12 -73 2 -1 26 -8 52
-15 27 -7 49 -16 49 -22 0 -5 -27 -15 -59 -20 -58 -10 -60 -11 -72 -50 -106
-344 -108 -356 -91 -383 52 -82 88 -154 84 -169 -3 -14 -18 -3 -69 49 l-66 67
-42 -97 c-61 -142 -205 -417 -297 -572 -266 -445 -565 -758 -866 -905 -139
-68 -247 -95 -379 -95 -287 0 -414 103 -495 405 -27 99 -28 104 -27 395 1 452
32 745 119 1137 87 390 236 866 329 1052 153 307 405 581 623 677 155 69 365
83 573 40z m-4087 -329 c26 -43 111 -130 137 -139 10 -3 8 -13 -10 -46 -13
-23 -28 -42 -32 -42 -35 0 -117 147 -126 226 -2 24 -2 44 1 44 3 0 16 -19 30
-43z m-56 -274 c-3 -10 -5 -4 -5 12 0 17 2 24 5 18 2 -7 2 -21 0 -30z m-2482
-481 c-3 -3 -11 0 -18 7 -9 10 -8 11 6 5 10 -3 15 -9 12 -12z m3401 -344 c-3
-13 -6 -27 -6 -32 0 -5 -9 -1 -20 9 -15 14 -17 21 -9 32 19 22 42 16 35 -9z"/>
<path d="M8758 10995 c-184 -30 -453 -90 -527 -117 -32 -12 -75 -39 -101 -64
-48 -46 -50 -65 -3 -41 30 16 103 33 103 24 0 -2 -12 -31 -26 -62 -24 -57 -76
-243 -87 -317 -7 -47 3 -56 131 -111 116 -50 93 -51 282 7 150 47 348 89 535
116 169 24 216 41 263 94 62 71 160 298 136 314 -6 4 -30 23 -55 43 -163 134
-336 164 -651 114z m447 -114 c68 -24 155 -86 155 -111 0 -31 -89 -187 -125
-218 -32 -29 -72 -42 -176 -57 l-47 -7 28 56 c54 107 49 212 -15 305 -19 27
-31 52 -27 56 12 12 149 -4 207 -24z m-421 -33 c31 -44 17 -101 -31 -126 -69
-37 -147 25 -127 102 5 20 15 27 47 35 70 15 95 13 111 -11z m-280 -94 c-10
-37 -14 -74 -11 -105 10 -80 67 -172 134 -216 25 -17 25 -17 -93 -49 -179 -49
-185 -50 -249 -20 -30 14 -58 33 -62 42 -14 38 61 284 106 343 13 17 42 30
102 46 46 12 85 21 87 20 2 -2 -4 -29 -14 -61z"/>
<path d="M6700 10693 c-158 -12 -359 -37 -445 -54 -184 -37 -323 -125 -423
-267 l-41 -59 31 -49 c46 -73 134 -169 185 -203 64 -43 109 -46 285 -22 204
28 433 43 599 39 l135 -3 80 66 c127 107 123 98 88 171 -36 78 -121 214 -169
273 l-37 44 74 3 73 3 -28 19 c-55 37 -98 45 -232 44 -71 -1 -150 -3 -175 -5z
m199 -138 c46 -23 211 -253 211 -293 0 -24 -48 -80 -83 -99 -24 -13 -66 -18
-166 -21 l-135 -4 37 43 c69 80 87 210 43 305 -13 28 -29 55 -35 58 -42 26 80
37 128 11z m-354 -26 c16 -25 7 -82 -16 -105 -38 -37 -79 -41 -116 -10 -36 30
-45 63 -27 105 11 27 17 30 66 33 54 3 82 -4 93 -23z m-275 -50 c-45 -100 -17
-241 64 -322 19 -20 32 -38 28 -40 -4 -3 -55 -10 -114 -17 -99 -11 -109 -10
-150 8 -46 21 -188 160 -188 184 0 29 119 146 176 174 48 23 193 66 202 59 1
-1 -7 -22 -18 -46z"/>
<path d="M12433 3936 c-133 -34 -252 -126 -350 -273 -133 -201 -248 -559 -363
-1132 -67 -335 -90 -501 -90 -651 0 -196 31 -286 116 -336 55 -33 124 -30 199
7 67 32 261 226 357 356 136 184 237 378 263 508 3 11 29 78 60 149 76 179 74
190 -22 135 -88 -50 -82 -25 21 88 54 59 67 83 46 83 -6 0 -70 -13 -143 -29
-169 -38 -223 -45 -231 -33 -10 17 28 41 145 93 76 33 123 61 142 82 16 18 47
38 74 47 26 8 48 20 50 25 2 6 -117 73 -264 149 -147 76 -289 152 -315 169
-131 86 9 53 391 -92 73 -28 144 -51 158 -51 26 0 27 12 7 64 -10 26 22 19 59
-14 19 -16 44 -30 55 -30 22 0 21 -1 53 167 6 35 15 61 19 58 4 -2 13 7 20 20
22 41 -2 204 -40 275 -68 126 -265 205 -417 166z"/>
<path d="M2905 2872 c2 -9 9 -41 16 -70 l11 -53 29 27 c16 15 29 33 29 39 0
14 -36 48 -67 64 -18 9 -21 8 -18 -7z"/>
</g>
</svg>
